REM DIRINDEX 1\8,1\2\11,1\3\12,1\3\14,1\5\15,1\5\16,1\6\17,1\6\18,1\4\19,1\4\20,1\4\21,1\4\22,1\7\23,1\7\24,1\7\25,1\2\9\26,1\2\9\27,1\2\10\28,1\2\10\29,1\2\10\30,1\2\10\31,1\2\10\32,1\3\13\33,1\3\13\34,1\3\13\35
REM DIRNAME folder01,folder02,folder03,folder04,folder05,folder06,folder07,folder08,folder09,folder10,folder11,folder12,folder13,folder14,folder15,folder16,folder17,folder18,folder19,folder20,folder21,folder22,folder23,folder24,folder25,folder26,folder27,folder28,folder29,folder30,folder31,folder32,folder33,folder34,folder35
TITLE ""
FILE "1-35 035_UNIT3_SET4.mp3" MP3
  TRACK 01 AUDIO
    TITLE "11:cjc123_1517"
    INDEX 01 00:00:00
  TRACK 02 AUDIO
    TITLE "0:"
    INDEX 01 00:02:47
  TRACK 03 AUDIO
    TITLE "28:cjc123_1518"
    INDEX 01 00:03:23
  TRACK 04 AUDIO
    TITLE "0:"
    INDEX 01 00:04:50
  TRACK 05 AUDIO
    TITLE "29:cjc123_1519"
    INDEX 01 00:04:58
  TRACK 06 AUDIO
    TITLE "0:"
    INDEX 01 00:06:20
  TRACK 07 AUDIO
    TITLE "30:cjc123_1520"
    INDEX 01 00:06:28
  TRACK 08 AUDIO
    TITLE "0:"
    INDEX 01 00:07:54
  TRACK 09 AUDIO
    TITLE "31:cjc123_1521"
    INDEX 01 00:08:34
  TRACK 10 AUDIO
    TITLE "0:"
    INDEX 01 00:11:50
  TRACK 11 AUDIO
    TITLE "32:cjc123_1522"
    INDEX 01 00:11:74
  TRACK 12 AUDIO
    TITLE "0:"
    INDEX 01 00:15:74
  TRACK 13 AUDIO
    TITLE "28:cjc123_1523"
    INDEX 01 00:16:32
  TRACK 14 AUDIO
    TITLE "0:"
    INDEX 01 00:17:55
  TRACK 15 AUDIO
    TITLE "29:cjc123_1524"
    INDEX 01 00:17:70
  TRACK 16 AUDIO
    TITLE "0:"
    INDEX 01 00:18:56
  TRACK 17 AUDIO
    TITLE "30:cjc123_1525"
    INDEX 01 00:19:07
  TRACK 18 AUDIO
    TITLE "0:"
    INDEX 01 00:20:20
  TRACK 19 AUDIO
    TITLE "31:cjc123_1526"
    INDEX 01 00:21:04
  TRACK 20 AUDIO
    TITLE "0:"
    INDEX 01 00:24:29
  TRACK 21 AUDIO
    TITLE "32:cjc123_1527"
    INDEX 01 00:24:65
  TRACK 22 AUDIO
    TITLE "0:"
    INDEX 01 00:28:55
  TRACK 23 AUDIO
    TITLE "28:cjc123_1528"
    INDEX 01 00:29:07
  TRACK 24 AUDIO
    TITLE "0:"
    INDEX 01 00:30:14
  TRACK 25 AUDIO
    TITLE "29:cjc123_1529"
    INDEX 01 00:30:24
  TRACK 26 AUDIO
    TITLE "0:"
    INDEX 01 00:31:26
  TRACK 27 AUDIO
    TITLE "30:cjc123_1530"
    INDEX 01 00:31:37
  TRACK 28 AUDIO
    TITLE "0:"
    INDEX 01 00:32:37
  TRACK 29 AUDIO
    TITLE "31:cjc123_1531"
    INDEX 01 00:33:13
  TRACK 30 AUDIO
    TITLE "0:"
    INDEX 01 00:36:68
  TRACK 31 AUDIO
    TITLE "32:cjc123_1532"
    INDEX 01 00:37:28
  TRACK 32 AUDIO
    TITLE "0:"
    INDEX 01 00:41:40
  TRACK 33 AUDIO
    TITLE "28:cjc123_1533"
    INDEX 01 00:42:10
  TRACK 34 AUDIO
    TITLE "0:"
    INDEX 01 00:43:13
  TRACK 35 AUDIO
    TITLE "29:cjc123_1534"
    INDEX 01 00:43:27
  TRACK 36 AUDIO
    TITLE "0:"
    INDEX 01 00:44:34
  TRACK 37 AUDIO
    TITLE "30:cjc123_1535"
    INDEX 01 00:44:38
  TRACK 38 AUDIO
    TITLE "0:"
    INDEX 01 00:45:32
  TRACK 39 AUDIO
    TITLE "31:cjc123_1536"
    INDEX 01 00:46:04
  TRACK 40 AUDIO
    TITLE "0:"
    INDEX 01 00:49:65
  TRACK 41 AUDIO
    TITLE "32:cjc123_1537"
    INDEX 01 00:50:23
  TRACK 42 AUDIO
    TITLE "0:"
    INDEX 01 00:54:01
  TRACK 43 AUDIO
    TITLE "28:cjc123_1538"
    INDEX 01 00:54:46
  TRACK 44 AUDIO
    TITLE "0:"
    INDEX 01 00:55:51
  TRACK 45 AUDIO
    TITLE "29:cjc123_1539"
    INDEX 01 00:55:69
  TRACK 46 AUDIO
    TITLE "0:"
    INDEX 01 00:57:48
  TRACK 47 AUDIO
    TITLE "30:cjc123_1540"
    INDEX 01 00:57:56
  TRACK 48 AUDIO
    TITLE "0:"
    INDEX 01 00:58:62
  TRACK 49 AUDIO
    TITLE "31:cjc123_1541"
    INDEX 01 00:59:34
  TRACK 50 AUDIO
    TITLE "0:"
    INDEX 01 01:03:02
  TRACK 51 AUDIO
    TITLE "32:cjc123_1542"
    INDEX 01 01:03:47
  TRACK 52 AUDIO
    TITLE "0:"
    INDEX 01 01:08:36
  TRACK 53 AUDIO
    TITLE "28:cjc123_1543"
    INDEX 01 01:09:07
  TRACK 54 AUDIO
    TITLE "0:"
    INDEX 01 01:10:30
  TRACK 55 AUDIO
    TITLE "29:cjc123_1544"
    INDEX 01 01:10:55
  TRACK 56 AUDIO
    TITLE "0:"
    INDEX 01 01:12:05
  TRACK 57 AUDIO
    TITLE "30:cjc123_1545"
    INDEX 01 01:12:13
  TRACK 58 AUDIO
    TITLE "0:"
    INDEX 01 01:13:34
  TRACK 59 AUDIO
    TITLE "31:cjc123_1546"
    INDEX 01 01:14:16
  TRACK 60 AUDIO
    TITLE "0:"
    INDEX 01 01:18:31
  TRACK 61 AUDIO
    TITLE "32:cjc123_1547"
    INDEX 01 01:18:70
  TRACK 62 AUDIO
    TITLE "0:"
    INDEX 01 01:22:70
  TRACK 63 AUDIO
    TITLE "28:cjc123_1548"
    INDEX 01 01:23:46
  TRACK 64 AUDIO
    TITLE "0:"
    INDEX 01 01:24:51
  TRACK 65 AUDIO
    TITLE "29:cjc123_1549"
    INDEX 01 01:24:67
  TRACK 66 AUDIO
    TITLE "0:"
    INDEX 01 01:25:74
  TRACK 67 AUDIO
    TITLE "30:cjc123_1550"
    INDEX 01 01:26:07
  TRACK 68 AUDIO
    TITLE "0:"
    INDEX 01 01:27:12
  TRACK 69 AUDIO
    TITLE "31:cjc123_1551"
    INDEX 01 01:27:65
  TRACK 70 AUDIO
    TITLE "0:"
    INDEX 01 01:31:04
  TRACK 71 AUDIO
    TITLE "32:cjc123_1552"
    INDEX 01 01:31:36
  TRACK 72 AUDIO
    TITLE "0:"
    INDEX 01 01:35:14
  TRACK 73 AUDIO
    TITLE "28:cjc123_1553"
    INDEX 01 01:35:59
  TRACK 74 AUDIO
    TITLE "0:"
    INDEX 01 01:36:74
  TRACK 75 AUDIO
    TITLE "29:cjc123_1554"
    INDEX 01 01:37:21
  TRACK 76 AUDIO
    TITLE "0:"
    INDEX 01 01:38:49
  TRACK 77 AUDIO
    TITLE "30:cjc123_1555"
    INDEX 01 01:38:59
  TRACK 78 AUDIO
    TITLE "0:"
    INDEX 01 01:39:72
  TRACK 79 AUDIO
    TITLE "31:cjc123_1556"
    INDEX 01 01:40:48
  TRACK 80 AUDIO
    TITLE "0:"
    INDEX 01 01:44:24
  TRACK 81 AUDIO
    TITLE "32:cjc123_1557"
    INDEX 01 01:44:46
  TRACK 82 AUDIO
    TITLE "0:"
    INDEX 01 01:48:26
  TRACK 83 AUDIO
    TITLE "28:cjc123_1558"
    INDEX 01 01:48:60
  TRACK 84 AUDIO
    TITLE "0:"
    INDEX 01 01:49:65
  TRACK 85 AUDIO
    TITLE "29:cjc123_1559"
    INDEX 01 01:50:06
  TRACK 86 AUDIO
    TITLE "0:"
    INDEX 01 01:51:23
  TRACK 87 AUDIO
    TITLE "30:cjc123_1560"
    INDEX 01 01:51:36
  TRACK 88 AUDIO
    TITLE "0:"
    INDEX 01 01:52:38
  TRACK 89 AUDIO
    TITLE "31:cjc123_1561"
    INDEX 01 01:53:14
  TRACK 90 AUDIO
    TITLE "0:"
    INDEX 01 01:56:65
  TRACK 91 AUDIO
    TITLE "32:cjc123_1562"
    INDEX 01 01:57:31
  TRACK 92 AUDIO
    TITLE "0:"
    INDEX 01 02:01:29
  TRACK 93 AUDIO
    TITLE "28:cjc123_1563"
    INDEX 01 02:02:05
  TRACK 94 AUDIO
    TITLE "0:"
    INDEX 01 02:03:14
  TRACK 95 AUDIO
    TITLE "29:cjc123_1564"
    INDEX 01 02:03:41
  TRACK 96 AUDIO
    TITLE "0:"
    INDEX 01 02:04:37
  TRACK 97 AUDIO
    TITLE "30:cjc123_1565"
    INDEX 01 02:04:49
  TRACK 98 AUDIO
    TITLE "0:"
    INDEX 01 02:05:68
  TRACK 99 AUDIO
    TITLE "31:cjc123_1566"
    INDEX 01 02:06:42
  TRACK 100 AUDIO
    TITLE "0:"
    INDEX 01 02:09:38
  TRACK 101 AUDIO
    TITLE "32:cjc123_1567"
    INDEX 01 02:10:00
  TRACK 102 AUDIO
    TITLE "0:"
    INDEX 01 02:13:20
  TRACK 103 AUDIO
    TITLE "28:cjc123_1568"
    INDEX 01 02:13:69
  TRACK 104 AUDIO
    TITLE "0:"
    INDEX 01 02:15:09
  TRACK 105 AUDIO
    TITLE "29:cjc123_1569"
    INDEX 01 02:15:17
  TRACK 106 AUDIO
    TITLE "0:"
    INDEX 01 02:16:32
  TRACK 107 AUDIO
    TITLE "30:cjc123_1570"
    INDEX 01 02:16:46
  TRACK 108 AUDIO
    TITLE "0:"
    INDEX 01 02:17:49
  TRACK 109 AUDIO
    TITLE "31:cjc123_1571"
    INDEX 01 02:18:21
  TRACK 110 AUDIO
    TITLE "0:"
    INDEX 01 02:21:45
  TRACK 111 AUDIO
    TITLE "32:cjc123_1572"
    INDEX 01 02:22:02
  TRACK 112 AUDIO
    TITLE "0:"
    INDEX 01 02:25:47
  TRACK 113 AUDIO
    TITLE "28:cjc123_1573"
    INDEX 01 02:26:21
  TRACK 114 AUDIO
    TITLE "0:"
    INDEX 01 02:27:26
  TRACK 115 AUDIO
    TITLE "29:cjc123_1574"
    INDEX 01 02:27:40
  TRACK 116 AUDIO
    TITLE "0:"
    INDEX 01 02:29:08
  TRACK 117 AUDIO
    TITLE "30:cjc123_1575"
    INDEX 01 02:29:15
  TRACK 118 AUDIO
    TITLE "0:"
    INDEX 01 02:30:23
  TRACK 119 AUDIO
    TITLE "31:cjc123_1576"
    INDEX 01 02:31:14
  TRACK 120 AUDIO
    TITLE "0:"
    INDEX 01 02:34:73
  TRACK 121 AUDIO
    TITLE "32:cjc123_1577"
    INDEX 01 02:35:30
  TRACK 122 AUDIO
    TITLE "0:"
    INDEX 01 02:38:59
  TRACK 123 AUDIO
    TITLE "28:cjc123_1578"
    INDEX 01 02:39:27
  TRACK 124 AUDIO
    TITLE "0:"
    INDEX 01 02:40:29
  TRACK 125 AUDIO
    TITLE "29:cjc123_1579"
    INDEX 01 02:40:54
  TRACK 126 AUDIO
    TITLE "0:"
    INDEX 01 02:41:66
  TRACK 127 AUDIO
    TITLE "30:cjc123_1580"
    INDEX 01 02:41:69
  TRACK 128 AUDIO
    TITLE "0:"
    INDEX 01 02:43:02
  TRACK 129 AUDIO
    TITLE "31:cjc123_1581"
    INDEX 01 02:43:49
  TRACK 130 AUDIO
    TITLE "0:"
    INDEX 01 02:47:64
  TRACK 131 AUDIO
    TITLE "32:cjc123_1582"
    INDEX 01 02:48:42
  TRACK 132 AUDIO
    TITLE "0:"
    INDEX 01 02:52:44
  TRACK 133 AUDIO
    TITLE "28:cjc123_1583"
    INDEX 01 02:53:20
  TRACK 134 AUDIO
    TITLE "0:"
    INDEX 01 02:54:23
  TRACK 135 AUDIO
    TITLE "29:cjc123_1584"
    INDEX 01 02:54:41
  TRACK 136 AUDIO
    TITLE "0:"
    INDEX 01 02:56:08
  TRACK 137 AUDIO
    TITLE "30:cjc123_1585"
    INDEX 01 02:56:20
  TRACK 138 AUDIO
    TITLE "0:"
    INDEX 01 02:57:18
  TRACK 139 AUDIO
    TITLE "31:cjc123_1586"
    INDEX 01 02:57:69
  TRACK 140 AUDIO
    TITLE "0:"
    INDEX 01 03:01:74
  TRACK 141 AUDIO
    TITLE "32:cjc123_1587"
    INDEX 01 03:02:46
  TRACK 142 AUDIO
    TITLE "0:"
    INDEX 01 03:08:13
  TRACK 143 AUDIO
    TITLE "28:cjc123_1588"
    INDEX 01 03:08:60
  TRACK 144 AUDIO
    TITLE "0:"
    INDEX 01 03:10:14
  TRACK 145 AUDIO
    TITLE "29:cjc123_1589"
    INDEX 01 03:10:24
  TRACK 146 AUDIO
    TITLE "0:"
    INDEX 01 03:11:55
  TRACK 147 AUDIO
    TITLE "30:cjc123_1590"
    INDEX 01 03:11:67
  TRACK 148 AUDIO
    TITLE "0:"
    INDEX 01 03:13:11
  TRACK 149 AUDIO
    TITLE "31:cjc123_1591"
    INDEX 01 03:13:56
  TRACK 150 AUDIO
    TITLE "0:"
    INDEX 01 03:18:37
  TRACK 151 AUDIO
    TITLE "32:cjc123_1592"
    INDEX 01 03:19:19
  TRACK 152 AUDIO
    TITLE "0:"
    INDEX 01 03:24:18
